# xmcd CD database file
#
# Track frame offsets:
#	150
#	20360
#	38550
#	55937
#	73662
#	87115
#	99927
#	119837
#	135012
#	155305
#	170345
#	185657
#	200310
#	215987
#	234922
#
# Disc length: 3309 seconds
#
# Revision: 2
# Processed by: cddbd v1.4PL0 Copyright (c) Steve Scherf et al.
# Submitted via: CDex 1.40Release
#
DISCID=c30ceb0f
DTITLE=Brooks and Dunn - Steers and Stripes
DYEAR=2001
DGENRE=Country
TTITLE0=Only In America
TTITLE1=The Last Thing I Do
TTITLE2=The Long Goodbye
TTITLE3=Go West
TTITLE4=My Heart Is Lost To You
TTITLE5=(Good Girls) Go To Heaven
TTITLE6=When She's Gone, She's Gone
TTITLE7=Ain't Nothing 'Bout You
TTITLE8=Unloved
TTITLE9=Deny, Deny, Deny
TTITLE10=Lucky Me, Lonely You
TTITLE11=I Fall
TTITLE12=Every River
TTITLE13=See Jane Dance
TTITLE14=What Kind Of Love
EXTD=Wal*Mart exclusive contains bonus track 15. YEAR: 2001 ID3G: 2
EXTT0=
EXTT1=
EXTT2=
EXTT3=
EXTT4=
EXTT5=
EXTT6=
EXTT7=
EXTT8=
EXTT9=
EXTT10=
EXTT11=
EXTT12=
EXTT13=
EXTT14=
PLAYORDER=
